<?xml version="1.0" standalone="no"?><!DOCTYPE svg PUBLIC "-//W3C//DTD SVG 1.1//EN" "http://www.w3.org/Graphics/SVG/1.1/DTD/svg11.dtd"><svg class="icon" width="16px" height="16.00px" viewBox="0 0 1024 1024" version="1.1" xmlns="http://www.w3.org/2000/svg"><path fill="#12A5F0" d="M512 687.8208c-6.9632 0-13.9264-1.7408-20.0704-5.2224L264.192 554.5984v147.456c0 7.8848 4.608 15.1552 11.6736 18.5344l230.1952 109.056c5.632 2.6624 12.0832 2.6624 17.7152-0.1024l224.4608-108.8512c7.0656-3.3792 11.5712-10.5472 11.5712-18.432V554.5984l-227.7376 128c-6.144 3.4816-13.1072 5.2224-20.0704 5.2224zM895.1808 395.3664L521.728 194.8672c-6.0416-3.2768-13.312-3.2768-19.3536 0L128.8192 395.3664c-14.2336 7.68-14.4384 27.9552-0.3072 35.9424L264.192 507.5968l237.7728 133.632c6.2464 3.4816 13.824 3.4816 20.0704 0L759.808 507.5968l73.1136-41.0624 0.8192 1.4336v308.6336c0 11.264 9.216 20.48 20.48 20.48s20.48-9.216 20.48-20.48V442.9824l20.7872-11.6736c14.1312-7.9872 13.9264-28.2624-0.3072-35.9424z" /></svg>